v -47.22379684 4 -58.80163574 
vn 0.1398068815 0.3014605343 0.9431731701
v 47.22379684 4 -58.80163574 
vn -0.1461723149 0.07879652083 0.9861159921
v -47.22379684 91.60300446 -58.80163574 
vn 0.1461723149 -0.07879652083 0.9861159921
v 47.22379684 91.60300446 -58.80163574 
vn -0.1398068815 -0.3014605343 0.9431731701
v -47.22379684 91.60300446 -44.80163574 
vn 0.4189077616 -0.9032756686 0.09278669208
v 47.22379684 91.60300446 -44.80163574 
vn -0.8726679683 -0.470425576 0.1309596449
v 47.22379684 4 -44.80163574 
vn -0.4199047089 0.9054253101 0.06232981384
v -47.22379684 4 -44.80163574 
vn 0.8758853674 0.4721599817 0.09944721311
v -48.22379684 92.60299683 -44.80163574 
vn -0.8768754601 0.4719291329 0.09150017798
v 48.22379684 92.60299683 -44.80163574 
vn 0.4205689728 0.905390799 0.0582173951
v -48.22379684 92.60299683 -59.80163574 
vn -0.1459002644 0.3140905797 -0.9381152391
v 48.22379684 92.60299683 -59.80163574 
vn 0.1531544626 0.08242681623 -0.9847586155
v -48.22379684 3.000000715 -44.80163574 
vn -0.4197422266 -0.9036110044 0.08546140045
v -48.22379684 3.000000715 -59.80163574 
vn -0.1531544626 -0.08242681623 -0.9847586155
v 48.22379684 3.000000715 -44.80163574 
vn 0.8742365241 -0.4705088735 0.1197160482
v 48.22379684 3.000000715 -59.80163574 
vn 0.1459002644 -0.3140905797 -0.9381152391
# mm_gid 0
g mmGroup0
f 1//1 2//2 3//3 
f 3//3 2//2 4//4 
f 3//3 4//4 5//5 
f 5//5 4//4 6//6 
f 4//4 2//2 6//6 
f 6//6 2//2 7//7 
f 2//2 1//1 7//7 
f 7//7 1//1 8//8 
f 1//1 3//3 8//8 
f 8//8 3//3 5//5 
f 9//9 10//10 11//11 
f 11//11 10//10 12//12 
f 13//13 9//9 14//14 
f 14//14 9//9 11//11 
f 15//15 13//13 16//16 
f 16//16 13//13 14//14 
f 10//10 15//15 12//12 
f 12//12 15//15 16//16 
f 16//16 14//14 12//12 
f 12//12 14//14 11//11 
f 6//6 9//9 5//5 
f 5//5 9//9 13//13 
f 5//5 13//13 8//8 
f 8//8 13//13 15//15 
f 8//8 15//15 7//7 
f 7//7 15//15 6//6 
f 6//6 15//15 10//10 
f 6//6 10//10 9//9 
